<?xml version="1.0" encoding="UTF-8"?>
<svg id="pwa-add" width="25" height="25" version="1.1" xmlns="http://www.w3.org/2000/svg" xmlns:xlink="http://www.w3.org/1999/xlink">
    <g>
        <path d="m23.40492,1.60784c-1.32504,-1.32504 -3.19052,-1.56912 -5.59644,-1.56912l-10.65243,0c-2.33622,0 -4.2017,0.24408 -5.5267,1.56912c-1.32504,1.34243 -1.56911,3.17306 -1.56911,5.50924l0,10.5827c0,2.40596 0.22665,4.254 1.55165,5.57902c1.34246,1.32501 3.19052,1.5691 5.59647,1.5691l10.60013,0c2.40592,0 4.2714,-0.24408 5.59644,-1.5691c1.325,-1.34245 1.55166,-3.17306 1.55166,-5.57902l0,-10.51293c0,-2.40596 -0.22666,-4.25401 -1.55166,-5.57901zm-0.38355,5.21289l0,11.24518c0,1.51681 -0.20924,2.94643 -1.02865,3.78327c-0.83683,0.83685 -2.30134,1.0635 -3.81815,1.0635l-11.33234,0c-1.51681,0 -2.96386,-0.22665 -3.80073,-1.0635c-0.83683,-0.83684 -1.04607,-2.26646 -1.04607,-3.78327l0,-11.19288c0,-1.5517 0.20924,-3.01617 1.02865,-3.85304c0.83687,-0.83683 2.31876,-1.04607 3.87042,-1.04607l11.28007,0c1.51681,0 2.98132,0.22666 3.81815,1.06353c0.81941,0.81941 1.02865,2.26645 1.02865,3.78327zm-10.53039,12.08205c0.64506,0 1.02861,-0.43586 1.02861,-1.13326l0,-4.34117l4.53294,0c0.66252,0 1.13326,-0.36613 1.13326,-0.99376c0,-0.64506 -0.43586,-1.02861 -1.13326,-1.02861l-4.53294,0l0,-4.53294c0,-0.6974 -0.38355,-1.13326 -1.02861,-1.13326c-0.62763,0 -0.99376,0.45332 -0.99376,1.13326l0,4.53294l-4.51552,0c-0.69737,0 -1.15069,0.38355 -1.15069,1.02861c0,0.62763 0.48817,0.99376 1.15069,0.99376l4.51552,0l0,4.34117c0,0.66252 0.36613,1.13326 0.99376,1.13326z"></path>
    </g>
</svg>